<svg class="svg-icon svg-icon--bag " data-icon-theme="option_2" xmlns="http://www.w3.org/2000/svg" width="22" height="22" viewBox="0 0 22 22">
    <g id="m-bag" transform="translate(-264 -69)">
      <g id="Group_3858" data-name="Group 3858" transform="translate(1)">
        <path id="Path_2957" data-name="Path 2957" d="M3,1.5a.5.5,0,0,0-.5.5v.062l-1,11.979A.5.5,0,0,0,2,14.5H17a.5.5,0,0,0,.5-.458l-1-11.979V2a.5.5,0,0,0-.5-.5H3M3,0H16a2,2,0,0,1,2,2l1,12a2,2,0,0,1-2,2H2a2,2,0,0,1-2-2L1,2A2,2,0,0,1,3,0Z" transform="translate(265 74)"></path>
        <path id="Subtraction_13" data-name="Subtraction 13" d="M-2465.5,7h-1.5V2a2,2,0,0,1,2-2h5a2,2,0,0,1,2,2V7h-1.5V2a.5.5,0,0,0-.5-.5h-5a.5.5,0,0,0-.5.5V7Z" transform="translate(2737 70)"></path>
      </g>
      <rect id="Rectangle_5179" data-name="Rectangle 5179" width="22" height="22" transform="translate(264 69)" fill="none"></rect>
    </g>
  </svg>