<svg viewBox="0 0 259.745 41.745" height="41.745" width="259.745" xmlns="http://www.w3.org/2000/svg" id="logo">
  <path transform="translate(0 0.593)" d="M32.08,40.211V14.955L22.973,40.211H16.247L7.14,14.851v25.36H0V.449H9.521L19.558,28.314,29.7.449h9.521V40.211Z" data-sanitized-data-name="Path 2937" data-name="Path 2937" id="Path_2937"></path>
  <path transform="translate(32.551 0.593)" d="M24.676,40.211V.449h7.14V40.211Z" data-sanitized-data-name="Path 2938" data-name="Path 2938" id="Path_2938"></path>
  <path transform="translate(46.266)" d="M61.564,38.927a19.367,19.367,0,0,1-10.452,2.818,19.119,19.119,0,0,1-10.452-2.818c-3.725-2.3-5.588-5.844-5.588-10.749h7.14c0,2.609.931,4.279,2.9,5.218a15.029,15.029,0,0,0,6,1.148,14.1,14.1,0,0,0,6-1.044,4.284,4.284,0,0,0,2.9-3.966c0-2.087-1.759-3.653-5.174-4.383a111.232,111.232,0,0,1-11.694-2.5C38.384,20.872,36,17.428,36,12.21c0-3.861,1.759-6.888,5.174-9.184A17.212,17.212,0,0,1,51.112,0,16.793,16.793,0,0,1,61.15,3.026c3.415,2.3,5.071,5.74,5.071,10.541H58.977c0-2.4-.828-4.07-2.587-5.009a9.026,9.026,0,0,0-5.278-1.252,12.4,12.4,0,0,0-5.381,1.148c-1.656.939-2.587,2.192-2.587,3.757,0,2.3,1.759,3.757,5.174,4.592A102.534,102.534,0,0,1,59.7,19.2c4.864,1.879,7.348,5.218,7.348,10.332C67.153,33.4,65.29,36.631,61.564,38.927Z" data-sanitized-data-name="Path 2939" data-name="Path 2939" id="Path_2939"></path>
  <path transform="translate(74.167 0.593)" d="M82.922,36.976a13.227,13.227,0,0,1-8.8,3.34h-17.9V.449H73.195a12.755,12.755,0,0,1,8.8,3.235,11.055,11.055,0,0,1,4.036,8.558,8.922,8.922,0,0,1-3.932,7.827c3.208,1.774,4.76,4.592,4.76,8.453A10.922,10.922,0,0,1,82.922,36.976ZM77.024,8.9A6.548,6.548,0,0,0,73.091,7.65H63.26V16.73h9.831a6.548,6.548,0,0,0,3.933-1.252,3.753,3.753,0,0,0,1.656-3.235A3.591,3.591,0,0,0,77.024,8.9Zm.931,16.28a6.548,6.548,0,0,0-3.933-1.252H63.26v8.975H74.022a6.333,6.333,0,0,0,3.933-1.252,3.989,3.989,0,0,0,0-6.47Z" data-sanitized-data-name="Path 2940" data-name="Path 2940" id="Path_2940"></path>
  <path transform="translate(101.243 0.593)" d="M101.689,40.211V23.931h-17.7v16.28H76.749V.449h7.14V16.73h17.7V.449h7.244V40.211Z" data-sanitized-data-name="Path 2941" data-name="Path 2941" id="Path_2941"></path>
  <path transform="translate(127.614 0.593)" d="M117.747,40.211H111.02L96.74.449H104.4l10.04,27.865L124.473.449h7.658Z" data-sanitized-data-name="Path 2942" data-name="Path 2942" id="Path_2942"></path>
</svg>
